<svg width="106" height="106" viewBox="0 0 106 106" fill="none" xmlns="http://www.w3.org/2000/svg">
<path d="M33.9601 90.6329C30.4625 87.1356 30.4625 81.4647 33.9601 77.9674L50.4254 61.5021C51.8244 60.1031 54.0927 60.1031 55.4917 61.5021L71.9569 77.9674C75.4544 81.4647 75.4544 87.1356 71.9569 90.6329L59.2912 103.298C55.7937 106.797 50.1231 106.797 46.6256 103.298L33.9601 90.6329Z" fill="#2C2C2C"/>
<path d="M61.4936 55.4942C60.0946 54.0952 60.0946 51.8269 61.4936 50.4279L77.9589 33.9625C81.4565 30.465 87.1274 30.465 90.6247 33.9625L103.29 46.6281C106.788 50.1256 106.788 55.7962 103.29 59.2937L90.6247 71.9594C87.1265 75.4567 81.4565 75.4567 77.9588 71.9594L61.4936 55.4942Z" fill="#2C2C2C"/>
<path d="M33.9601 27.9545C30.4625 24.457 30.4625 18.7863 33.9601 15.2888L46.6257 2.62312C50.1232 -0.874373 55.7939 -0.874373 59.2914 2.62312L71.9569 15.2887C75.4544 18.7862 75.4544 24.4568 71.9569 27.9543L55.4915 44.4197C54.0925 45.8187 51.8242 45.8187 50.4252 44.4197L33.9601 27.9545Z" fill="#2C2C2C"/>
<path d="M2.62312 59.2939C-0.87437 55.7964 -0.874378 50.1257 2.62312 46.6282L15.2889 33.9625C18.7863 30.465 24.457 30.465 27.9545 33.9625L44.4197 50.4277C45.8187 51.8267 45.8187 54.095 44.4197 55.494L27.9543 71.9594C24.4568 75.4566 18.7862 75.4566 15.2887 71.9594L2.62312 59.2939Z" fill="#2C2C2C"/>
</svg>
